<svg xmlns="http://www.w3.org/2000/svg" viewBox="0 0 128 128" id="jenkins">
  <path d="M127.1499,104.13342l-19.926-14.01233c7.84979-9.50354,12.775-23.07153,12.775-38.119,0-28.67145-17.86273-51.9975-39.81958-51.9975a30.81255,30.81255,0,0,0-6.4046.68176,1.97913,1.97913,0,0,0-.51782-.15C50.84308-2.42,40.50928,7.6864,38.21027,10.35327c-9.70221,2.46973-12.72931,10.147-13.07892,14.684-.44159.12238-.80963.22949-1.07941.31042C11.55,29.608,17.14789,49.41339,17.76312,51.45715a20.6637,20.6637,0,0,0-2.77246,10.54456c0,9.37354,5.72894,16.99915,12.77155,16.99915.2334,0,.46515-.0166.69684-.033a51.95373,51.95373,0,0,0,5.41254,12.00079L1.40851,111.31329a3.057,3.057,0,0,0-1.0108,4.09406l6.89508,11.61224a1.99926,1.99926,0,0,0,1.7218.97943l19.97913-.00049a2.00019,2.00019,0,0,0,1.63684-3.14685L17.42889,105.99414l8.57227-5.37207a41.21921,41.21921,0,0,0,34.65326,18.53314q.56406,0,1.13879-.01367a1.96288,1.96288,0,0,0,.2149-.027l-.01373,4.91882a3.917,3.917,0,0,0,1.87219,3.35675,4.014,4.014,0,0,0,3.931.18164l10.53357-5.252a7.49557,7.49557,0,0,0,4.5614,1.87518c.14453.00781.28711.01172.43066.01172a7.47312,7.47312,0,0,0,4.96136-1.86957c.16833-.14819.32635-.30469.479-.465l11.43109,5.6991a4.01214,4.01214,0,0,0,3.931-.18115,3.91691,3.91691,0,0,0,1.87225-3.35675l-.01715-6.147a22.45867,22.45867,0,0,0,13.41144-14.3186l4.18616,2.944-7.1275,18.7774a2.00162,2.00162,0,0,0,1.8703,2.70984c.8067,0,9.67889.001,9.67889.001V106.50586C128,105.19177,127.898,104.65881,127.1499,104.13342ZM62.01917,115.16125a1.7936,1.7936,0,0,0-.32367-.01855q-.52.01318-1.03131.0127a37.21581,37.21581,0,0,1-31.27411-16.657l6.72913-4.217c5.16449,6.96057,13.28619,13.66388,25.70721,14.71124.05664.00439.11426.00684.16992.00684.01361,0,.02643-.00354.04-.00385Zm24.76135,1.84412a3.328,3.328,0,0,1-1.13977,2.32953,3.5005,3.5005,0,0,1-2.52557.86615,3.3936,3.3936,0,0,1,.17676-6.78485c.06641,0,.13281.002.20026.00586a3.49949,3.49949,0,0,1,2.41425,1.14154,3.32515,3.32515,0,0,1,.87408,2.44128Zm16.957-12.58081a3.99962,3.99962,0,0,0-3.61615.0155L87.63245,110.79a7.51654,7.51654,0,0,0-8.04413-.39215l-11.71753-5.95776a4.01035,4.01035,0,0,0-4.80792.87927,1.98017,1.98017,0,0,0-.90051-.31287c-21.17468-1.785-28.30292-21.652-29.86517-27.095a11.85424,11.85424,0,0,0,2.45776-1.65363,2.00008,2.00008,0,1,0-2.61938-3.02325A6.68674,6.68674,0,0,1,27.76221,75.001c-4.75433,0-8.77124-5.95282-8.77124-12.99933s4.01691-12.99939,8.77124-12.99939a7.36506,7.36506,0,0,1,5.66254,3.12238,2,2,0,0,0,3.135-2.48425,11.26133,11.26133,0,0,0-8.79755-4.63794,10.527,10.527,0,0,0-6.81726,2.64917c-1.10846-5.19836-2.54529-16.15216,4.32581-18.49512,6.47809-1.93542,16.724-3.3963,19.22906-.58588.03375.038.07385.06616.1098.101a64.857,64.857,0,0,0-4.24976,23.33051,66.56175,66.56175,0,0,0,2.10565,16.74921h-4.473a1.99991,1.99991,0,1,0,0,3.99982h6.96637a2.00077,2.00077,0,0,0,2.00012-2.0365l-.00977-.53027a2.0314,2.0314,0,0,0-.082-.5307,62.16048,62.16048,0,0,1-2.507-17.65155c0-26.466,16.06866-47.99768,35.81921-47.99768,12.22162,0,23.0282,8.25006,29.49512,20.80688a12.87633,12.87633,0,0,0-10.72015.81171,2,2,0,0,0,2.08606,3.4129c.23352-.14343,5.7616-3.41064,11.46564,2.30884a61.51323,61.51323,0,0,1,3.49261,20.65735c0,26.46606-16.06866,47.99774-35.81927,47.99774a29.42516,29.42516,0,0,1-19.09912-7.4093,2.00029,2.00029,0,0,0-2.58813,3.0506,33.37383,33.37383,0,0,0,21.68726,8.35852c9.1626,0,17.60559-4.07257,24.34174-10.88989l4.59833,3.23383c-.01733.04907-.04126.09412-.05493.14514A17.45055,17.45055,0,0,1,103.73755,104.42456Zm2.23108,9.12665-.01569-5.60986c-.00018-.04413-.00726-.08685-.00885-.1308a22.17922,22.17922,0,0,0,6.57892-9.07343l3.41077,2.39868A18.49593,18.49593,0,0,1,105.96863,113.55121Z"></path>
  <path d="M79.99579 69.21863a6.2749 6.2749 0 0 0 2.6897 5.35327A10.04353 10.04353 0 0 0 88.351 75.9942a31.61114 31.61114 0 0 0 9.656-1.87006c4.8139-1.52582 7.48108-3.77325 7.92743-6.67938.67773-4.42065-4.20154-7.983-4.76019-8.37506a2.07876 2.07876 0 0 0-.2041-.12549c-7.40192-3.96368-9.93536-17.17255-9.95978-17.30579a2.00026 2.00026 0 0 0-3.9339.727c.11328.6167 2.87915 15.10425 11.8877 20.041 1.1026.80371 3.25024 2.90662 3.01581 4.43146-.1875 1.22308-2.07629 2.48914-5.266 3.50226-3.30695 1.2099-9.43146 2.53406-11.77148.92914a2.30933 2.30933 0 0 1-.94635-2.12683 2.00052 2.00052 0 0 0-4.00031.07617zM61.19647 32.10126c1.88391-1.22162 4.32452-1.42181 7.25641-.59564a2.00006 2.00006 0 0 0 1.08411-3.8504c-4.08728-1.1499-7.62561-.78369-10.51648 1.08978-4.96033 3.21466-5.96533 9.69238-6.00537 9.9668a2 2 0 1 0 3.95734.582C56.98029 39.24445 57.79187 34.30719 61.19647 32.10126zM69.995 46.14844a2.00028 2.00028 0 0 0-2.6037 1.10345l-1.25012 3.08777a1.99949 1.99949 0 0 0 1.32336 2.67859 24.59576 24.59576 0 0 0 6.49854.977 12.12284 12.12284 0 0 0 5.62347-1.1972 4.35353 4.35353 0 0 0 2.25409-2.59509 3.76454 3.76454 0 0 0-.35547-2.95935l-4.69373-8.23151a2 2 0 0 0-3.47491 1.98132l4.63123 8.1217a.99165.99165 0 0 1-.19629.12842c-.98737.5097-3.12427 1.15375-7.025.42963l.37213-.92035A1.9992 1.9992 0 0 0 69.995 46.14844zM99.30493 51.65454a19.34778 19.34778 0 0 0 6.6734 1.34467 10.00594 10.00594 0 0 0 5.83148-1.66986 5.1 5.1 0 0 0 1.78137-6.16425 2.00913 2.00913 0 0 0-.16113-.30371l-5.77972-8.94391a2 2 0 0 0-3.35968 2.17078l5.6626 8.76227a1.07076 1.07076 0 0 1-.42 1.19043c-1.15729.80219-3.26978 1.45593-6.9527.46771l.29889-.82855a2.00029 2.00029 0 0 0-3.764-1.35541L98.11536 49.101A2.00013 2.00013 0 0 0 99.30493 51.65454zM88.66833 78.79919c-8.38348 1.392-13.92-4.83179-14.16028-5.10669a2.00026 2.00026 0 0 0-3.02954 2.61267c.26074.30225 5.87549 6.69843 14.74237 6.69843a18.86757 18.86757 0 0 0 3.10376-.25928 1.99967 1.99967 0 1 0-.65631-3.94513zM105.48511 74.692c-1.21887 1.40857-4.50916 2.65466-8.80048 3.33331a2.00022 2.00022 0 0 0 .30957 3.97589 2.02887 2.02887 0 0 0 .31543-.0249c3.78546-.59912 8.80151-1.89447 11.20111-4.66626a2.00054 2.00054 0 0 0-3.02563-2.618zM88.68787 88.59613C73.72968 90.93 68.97247 82.45435 68.76544 82.07056a2 2 0 0 0-3.54718 1.84851c.21387.415 4.87146 9.086 18.45264 9.086a36.57049 36.57049 0 0 0 5.63422-.457 1.99994 1.99994 0 1 0-.61725-3.952zM23.90253 56.31836a1.99995 1.99995 0 0 0 1.16119 3.82745 3.45042 3.45042 0 0 1 4.52576 2.47449 2.00055 2.00055 0 0 0 3.805-1.23724A7.46386 7.46386 0 0 0 23.90253 56.31836z"></path>
</svg>
